<svg width="20" height="19" viewBox="0 0 20 19" fill="none" xmlns="http://www.w3.org/2000/svg">
<path d="M14.4677 10.9091C14.2705 11.1003 14.1798 11.3767 14.2248 11.6479L14.9018 15.395C14.959 15.7126 14.8249 16.034 14.5591 16.2176C14.2986 16.408 13.9521 16.4308 13.668 16.2785L10.2949 14.5192C10.1776 14.4567 10.0473 14.4232 9.91406 14.4194H9.70767C9.63608 14.4301 9.56601 14.4529 9.50203 14.488L6.1281 16.2557C5.96131 16.3394 5.77243 16.3691 5.58736 16.3394C5.13649 16.2541 4.83565 15.8246 4.90953 15.3714L5.58736 11.6243C5.6323 11.3509 5.54166 11.0729 5.34441 10.8786L2.59424 8.21299C2.36423 7.98983 2.28426 7.65472 2.38936 7.35236C2.49142 7.05076 2.75189 6.83065 3.06643 6.78115L6.85163 6.23202C7.13952 6.20232 7.39237 6.02715 7.52185 5.7682L9.18977 2.34854C9.22938 2.27238 9.2804 2.20231 9.34209 2.1429L9.41064 2.08959C9.44643 2.04998 9.48756 2.01723 9.53326 1.99058L9.61627 1.96011L9.74575 1.9068H10.0664C10.3527 1.9365 10.6048 2.10787 10.7366 2.36377L12.4266 5.7682C12.5485 6.01725 12.7853 6.19013 13.0587 6.23202L16.8439 6.78115C17.1638 6.82685 17.4311 7.04771 17.537 7.35236C17.6368 7.65777 17.5507 7.99288 17.3161 8.21299L14.4677 10.9091Z" fill="#F6B76F"/>
</svg>
